<svg width="176" height="193" viewBox="0 0 176 193" fill="none" xmlns="http://www.w3.org/2000/svg">
<g id="cart">
<g id="cart-body">
<g id="Group" filter="url(#filter0_f_2607_11353)">
<path id="Vector" d="M139.429 161.355C139.429 166.944 112.917 171.474 80.214 171.474C47.5111 171.474 21 166.944 21 161.355C21 155.766 47.5111 151.236 80.214 151.236C112.917 151.236 139.429 155.766 139.429 161.355Z" fill="url(#paint0_radial_2607_11353)"/>
</g>
<g id="Group_2" filter="url(#filter1_i_2607_11353)">
<path id="Vector_2" d="M81.3678 16.0875L42.8002 22.888C39.7018 23.4343 37.633 26.389 38.1793 29.4873L47.8995 84.6132C48.4458 87.712 51.4005 89.7808 54.4988 89.2337L93.0661 82.4339C96.1649 81.8877 98.2337 78.933 97.6875 75.8343L87.9674 20.7084C87.4203 17.6101 84.4656 15.5411 81.3678 16.0875Z" fill="url(#paint1_linear_2607_11353)"/>
</g>
<path id="Vector_3" d="M81.9245 44.425L51.9648 49.7078C50.9559 49.8857 50.2822 50.8477 50.4601 51.8566L50.4612 51.8625C50.6391 52.8714 51.6012 53.545 52.6099 53.3671L82.5704 48.0843C83.5785 47.9064 84.2524 46.9444 84.0749 45.9355L84.074 45.9296C83.8956 44.9207 82.9336 44.2471 81.9245 44.425Z" fill="url(#paint2_linear_2607_11353)"/>
<path id="Vector_4" d="M86.4822 70.1696L56.7799 75.4069C55.7797 75.5835 55.1086 76.5183 55.2809 77.4957L55.2819 77.502C55.4542 78.4794 56.4048 79.1288 57.405 78.9522L87.1072 73.7149C88.1081 73.5383 88.7784 72.6035 88.6063 71.6261L88.6054 71.6198C88.4333 70.6424 87.4822 69.993 86.4822 70.1696Z" fill="url(#paint3_linear_2607_11353)"/>
<path id="Vector_5" d="M84.1077 56.6988L54.4048 61.9361C53.4046 62.1128 52.7335 63.0475 52.9059 64.0249L52.9069 64.0312C53.0792 65.0086 54.0297 65.658 55.0299 65.4814L84.7327 60.2441C85.7327 60.0675 86.4039 59.1323 86.2318 58.1549L86.2309 58.1492C86.0579 57.1718 85.1077 56.5225 84.1077 56.6988Z" fill="url(#paint4_linear_2607_11353)"/>
<path id="Vector_6" d="M59.5577 28.711L50.8026 30.2548C48.8632 30.5968 47.5683 32.4462 47.9102 34.3855L48.3387 36.8152C48.6806 38.7545 50.53 40.0494 52.4694 39.7075L61.2245 38.1637C63.1637 37.8218 64.459 35.9724 64.1166 34.033L63.6881 31.6034C63.3466 29.664 61.497 28.3691 59.5577 28.711Z" fill="#A259FF"/>
<g id="Group_3" filter="url(#filter2_i_2607_11353)">
<path id="Vector_7" d="M127.33 31.2891H76.3033C73.9256 31.2891 71.998 33.2167 71.998 35.5945V59.5789C71.998 61.9566 73.9256 63.8842 76.3033 63.8842H127.33C129.708 63.8842 131.636 61.9566 131.636 59.5789V35.5945C131.636 33.2167 129.708 31.2891 127.33 31.2891Z" fill="url(#paint5_linear_2607_11353)"/>
</g>
<path id="Vector_8" d="M84.5918 52.5324C87.3255 52.5324 89.542 50.3162 89.542 47.5825C89.542 44.8488 87.3255 42.6328 84.5918 42.6328C81.8582 42.6328 79.6426 44.8488 79.6426 47.5825C79.6426 50.3162 81.8582 52.5324 84.5918 52.5324Z" fill="white"/>
<path id="Vector_9" d="M102.28 52.5324C105.014 52.5324 107.23 50.3162 107.23 47.5825C107.23 44.8488 105.014 42.6328 102.28 42.6328C99.5466 42.6328 97.3301 44.8488 97.3301 47.5825C97.3301 50.3162 99.5466 52.5324 102.28 52.5324Z" fill="white"/>
<path id="Vector_10" d="M119.97 52.5324C122.703 52.5324 124.919 50.3162 124.919 47.5825C124.919 44.8488 122.703 42.6328 119.97 42.6328C117.236 42.6328 115.02 44.8488 115.02 47.5825C115.02 50.3162 117.236 52.5324 119.97 52.5324Z" fill="white"/>
<path id="Vector_11" fill-rule="evenodd" clip-rule="evenodd" d="M75.2902 117.466C75.7178 115.04 78.0312 113.42 80.4578 113.848L105.946 118.342C109.429 118.956 112.576 120.573 114.807 122.91C117.038 125.245 118.548 128.565 117.901 132.241C117.252 135.917 114.697 138.52 111.804 139.953C108.908 141.387 105.396 141.832 101.913 141.218L41.349 130.539C38.9228 130.111 37.3028 127.797 37.7306 125.371C38.1584 122.945 40.472 121.325 42.8983 121.753L103.462 132.432C105.268 132.75 106.824 132.464 107.845 131.958C108.866 131.452 109.076 130.91 109.115 130.692C109.153 130.475 109.142 129.896 108.355 129.071C107.569 128.248 106.205 127.447 104.397 127.129L78.8038 121.725C76.3781 121.298 74.8618 119.892 75.2902 117.466Z" fill="url(#paint6_linear_2607_11353)"/>
<path id="Vector_12" fill-rule="evenodd" clip-rule="evenodd" d="M124.523 72.0532C125.481 69.9943 127.704 68.8367 129.941 69.2307L149.923 72.7543C152.651 73.2353 154.473 75.8367 153.992 78.5659C153.51 81.2941 150.909 83.1157 148.181 82.6347L131.991 79.7796L122.428 100.308C121.259 102.82 118.274 103.906 115.762 102.737C113.251 101.567 112.164 98.5822 113.334 96.0713L124.523 72.0532Z" fill="url(#paint7_linear_2607_11353)"/>
<path id="Vector_13" d="M53.3006 148.31C59.2114 149.353 64.8479 145.405 65.8905 139.495C66.9322 133.584 62.9856 127.948 57.0749 126.905C51.1641 125.863 45.5275 129.81 44.4853 135.721C43.4431 141.632 47.3898 147.268 53.3006 148.31Z" fill="url(#paint8_linear_2607_11353)"/>
<path id="Vector_14" d="M119.912 81.1232L46.1592 68.1187C40.6306 67.144 35.7201 71.1132 36.1052 76.2391L37.0262 106.153C37.3057 109.856 40.3276 112.98 44.3204 113.684L108.61 129.359L126.598 92.2092C130.743 84.6857 125.454 82.1005 119.912 81.1232Z" fill="url(#paint9_linear_2607_11353)"/>
<path id="Vector_15" d="M53.9404 142.949C56.9099 143.472 59.7417 141.49 60.2653 138.52C60.7889 135.551 58.8061 132.719 55.8365 132.195C52.8669 131.672 50.0352 133.654 49.5116 136.625C48.988 139.594 50.9708 142.425 53.9404 142.949Z" fill="url(#paint10_linear_2607_11353)"/>
<mask id="mask0_2607_11353" style="mask-type:alpha" maskUnits="userSpaceOnUse" x="36" y="67" width="92" height="63">
<g id="mask0_1586_15585">
<path id="Vector_16" d="M119.913 81.1232L46.1592 68.1187C40.6306 67.144 35.7201 71.1132 36.1052 76.2391L37.0262 106.153C37.3057 109.856 40.3276 112.98 44.3204 113.684L108.609 129.359L126.599 92.2092C128.715 87.5109 125.454 82.1005 119.913 81.1232Z" fill="url(#paint11_linear_2607_11353)"/>
</g>
</mask>
<g mask="url(#mask0_2607_11353)">
<g id="Group_4">
<path id="Vector_17" d="M84.2289 100.848C84.5487 99.1537 86.1818 98.036 87.8766 98.3485C89.5704 98.6619 90.6845 100.289 90.3648 101.982L86.1429 124.312C85.8231 126.005 84.19 127.124 82.4961 126.81C80.8014 126.498 79.6873 124.871 80.007 123.178L84.2289 100.848Z" fill="#A259FF"/>
<path id="Vector_18" d="M139.326 86.324C140.741 86.5695 141.693 87.9164 141.454 89.3322L141.28 90.3575C141.04 91.7733 139.698 92.7216 138.283 92.4762L35.1601 74.5659C33.7454 74.3195 32.7931 72.9726 33.0331 71.5577L33.2069 70.5323C33.4469 69.1166 34.7883 68.1682 36.2029 68.4137L139.326 86.324Z" fill="#A259FF"/>
<path id="Vector_19" d="M101.584 103.983C101.904 102.291 103.537 101.172 105.231 101.485C106.925 101.799 108.04 103.425 107.719 105.118L103.498 127.449C103.178 129.142 101.545 130.261 99.8503 129.947C98.1565 129.635 97.0423 128.008 97.3621 126.315L101.584 103.983Z" fill="#A259FF"/>
<path id="Vector_20" d="M66.8766 97.7108C67.1963 96.0178 68.8295 94.8992 70.5233 95.2117C72.2181 95.5251 73.3322 97.1519 73.0115 98.8448L68.7905 121.175C68.4708 122.868 66.8376 123.987 65.1429 123.675C63.449 123.361 62.3348 121.734 62.6547 120.041L66.8766 97.7108Z" fill="#A259FF"/>
<path id="Vector_21" d="M49.3233 94.6166C49.6434 92.9237 51.2764 91.805 52.9707 92.1175C54.665 92.4309 55.7791 94.0577 55.459 95.7506L51.2376 118.081C50.9176 119.774 49.2846 120.893 47.5902 120.58C45.8959 120.267 44.7818 118.64 45.1019 116.947L49.3233 94.6166Z" fill="#A259FF"/>
</g>
<path id="Vector_22" d="M34.0812 68.4325C34.4054 66.5937 36.1584 65.3664 37.9966 65.6906L128.123 81.5819C129.961 81.9062 131.188 83.6598 130.864 85.4977C130.54 87.3365 128.787 88.5638 126.949 88.2395L36.8229 72.3473C34.9845 72.024 33.7571 70.2703 34.0812 68.4325Z" fill="url(#paint12_linear_2607_11353)"/>
</g>
</g>
<g id="cart-decor">
<path id="cart-circle-03" fill-rule="evenodd" clip-rule="evenodd" d="M18.8248 44.5526C20.5676 44.5526 21.9804 43.1398 21.9804 41.3971C21.9804 39.6544 20.5676 38.2417 18.8248 38.2417C17.0822 38.2417 15.6694 39.6544 15.6694 41.3971C15.6694 43.1398 17.0822 44.5526 18.8248 44.5526ZM18.8248 46.9193C21.8747 46.9193 24.347 44.4469 24.347 41.3971C24.347 38.3474 21.8747 35.875 18.8248 35.875C15.7751 35.875 13.3027 38.3474 13.3027 41.3971C13.3027 44.4469 15.7751 46.9193 18.8248 46.9193Z" fill="white"/>
<path id="cart-circle-02" fill-rule="evenodd" clip-rule="evenodd" d="M8.86195 142.379C10.6047 142.379 12.0175 140.966 12.0175 139.223C12.0175 137.48 10.6047 136.068 8.86195 136.068C7.11928 136.068 5.70651 137.48 5.70651 139.223C5.70651 140.966 7.11928 142.379 8.86195 142.379ZM8.86195 144.746C11.9118 144.746 14.3841 142.273 14.3841 139.223C14.3841 136.173 11.9118 133.701 8.86195 133.701C5.81222 133.701 3.33984 136.173 3.33984 139.223C3.33984 142.273 5.81222 144.746 8.86195 144.746Z" fill="white"/>
<path id="cart-circle-01" fill-rule="evenodd" clip-rule="evenodd" d="M155.6 9.22645C157.343 9.22645 158.756 7.81368 158.756 6.07093C158.756 4.32827 157.343 2.91549 155.6 2.91549C153.857 2.91549 152.445 4.32827 152.445 6.07093C152.445 7.81368 153.857 9.22645 155.6 9.22645ZM155.6 11.5931C158.65 11.5931 161.122 9.12075 161.122 6.07093C161.122 3.0212 158.65 0.548828 155.6 0.548828C152.55 0.548828 150.078 3.0212 150.078 6.07093C150.078 9.12075 152.55 11.5931 155.6 11.5931Z" fill="white"/>
<path id="cart-cross-02" d="M21.8082 0.721128C22.0402 -0.240376 23.4079 -0.240376 23.64 0.721128L24.4211 3.95718C24.5041 4.30075 24.7723 4.56904 25.116 4.65202L28.352 5.43318C29.3135 5.66524 29.3135 7.0329 28.352 7.26497L25.116 8.04613C24.7723 8.1291 24.5041 8.3973 24.4211 8.74096L23.64 11.977C23.4079 12.9385 22.0402 12.9385 21.8082 11.977L21.027 8.74096C20.944 8.3973 20.6757 8.1291 20.3322 8.04613L17.0961 7.26497C16.1346 7.0329 16.1346 5.66524 17.0961 5.43318L20.3322 4.65202C20.6757 4.56904 20.944 4.30075 21.027 3.95718L21.8082 0.721128Z" fill="white"/>
<path id="cart-cross-01" d="M167.555 33.6928C167.809 32.6389 169.308 32.6389 169.563 33.6928L170.42 37.2399C170.51 37.6165 170.805 37.9106 171.18 38.0015L174.728 38.8578C175.782 39.1122 175.782 40.6112 174.728 40.8657L171.18 41.7219C170.805 41.8129 170.51 42.1069 170.42 42.4835L169.563 46.0307C169.308 47.0846 167.809 47.0846 167.555 46.0307L166.699 42.4835C166.608 42.1069 166.314 41.8129 165.937 41.7219L162.39 40.8657C161.336 40.6112 161.336 39.1122 162.39 38.8578L165.937 38.0015C166.314 37.9106 166.608 37.6165 166.699 37.2399L167.555 33.6928Z" fill="url(#paint13_linear_2607_11353)"/>
<path id="cart-triangle-02" d="M12.425 162.902C13.6243 162.71 14.5817 163.887 14.1484 165.022L11.2236 172.681C10.7902 173.816 9.29112 174.056 8.52518 173.113L3.35498 166.75C2.58895 165.808 3.13062 164.39 4.32989 164.198L12.425 162.902Z" fill="url(#paint14_linear_2607_11353)"/>
<path id="cart-triangle-01" d="M153.681 145.483C153.381 144.306 154.468 143.246 155.637 143.574L163.53 145.792C164.699 146.121 165.074 147.592 164.205 148.44L158.338 154.166C157.468 155.015 156.007 154.604 155.707 153.427L153.681 145.483Z" fill="url(#paint15_linear_2607_11353)"/>
</g>
</g>
<defs>
<filter id="filter0_f_2607_11353" x="0.312599" y="130.549" width="159.803" height="61.6121" filterUnits="userSpaceOnUse" color-interpolation-filters="sRGB">
<feFlood flood-opacity="0" result="BackgroundImageFix"/>
<feBlend mode="normal" in="SourceGraphic" in2="BackgroundImageFix" result="shape"/>
<feGaussianBlur stdDeviation="10.3437" result="effect1_foregroundBlur_2607_11353"/>
</filter>
<filter id="filter1_i_2607_11353" x="38.0918" y="16" width="62.0677" height="78.8854" filterUnits="userSpaceOnUse" color-interpolation-filters="sRGB">
<feFlood flood-opacity="0" result="BackgroundImageFix"/>
<feBlend mode="normal" in="SourceGraphic" in2="BackgroundImageFix" result="shape"/>
<feColorMatrix in="SourceAlpha" type="matrix" values="0 0 0 0 0 0 0 0 0 0 0 0 0 0 0 0 0 0 127 0" result="hardAlpha"/>
<feOffset dx="2.38455" dy="5.56394"/>
<feGaussianBlur stdDeviation="5.96137"/>
<feComposite in2="hardAlpha" operator="arithmetic" k2="-1" k3="1"/>
<feColorMatrix type="matrix" values="0 0 0 0 0.104618 0 0 0 0 0.465612 0 0 0 0 0.545833 0 0 0 0.15 0"/>
<feBlend mode="normal" in2="shape" result="effect1_innerShadow_2607_11353"/>
</filter>
<filter id="filter2_i_2607_11353" x="71.998" y="31.2891" width="65.2635" height="36.3457" filterUnits="userSpaceOnUse" color-interpolation-filters="sRGB">
<feFlood flood-opacity="0" result="BackgroundImageFix"/>
<feBlend mode="normal" in="SourceGraphic" in2="BackgroundImageFix" result="shape"/>
<feColorMatrix in="SourceAlpha" type="matrix" values="0 0 0 0 0 0 0 0 0 0 0 0 0 0 0 0 0 0 127 0" result="hardAlpha"/>
<feOffset dx="5.62585" dy="3.75056"/>
<feGaussianBlur stdDeviation="6.09467"/>
<feComposite in2="hardAlpha" operator="arithmetic" k2="-1" k3="1"/>
<feColorMatrix type="matrix" values="0 0 0 0 0.104618 0 0 0 0 0.465612 0 0 0 0 0.545833 0 0 0 0.09 0"/>
<feBlend mode="normal" in2="shape" result="effect1_innerShadow_2607_11353"/>
</filter>
<radialGradient id="paint0_radial_2607_11353" cx="0" cy="0" r="1" gradientUnits="userSpaceOnUse" gradientTransform="translate(80.214 161.355) rotate(90) scale(10.1188 59.2142)">
<stop stop-color="#2B2B2B"/>
<stop offset="1" stop-color="#2B2B2B" stop-opacity="0"/>
</radialGradient>
<linearGradient id="paint1_linear_2607_11353" x1="45.2509" y1="22.4558" x2="95.4104" y2="20.9101" gradientUnits="userSpaceOnUse">
<stop stop-color="#A259FF"/>
<stop offset="1" stop-color="#3B3B3B"/>
</linearGradient>
<linearGradient id="paint2_linear_2607_11353" x1="77.4227" y1="47.9246" x2="74.1302" y2="38.1649" gradientUnits="userSpaceOnUse">
<stop stop-color="#A259FF"/>
<stop offset="0.666667" stop-color="white"/>
</linearGradient>
<linearGradient id="paint3_linear_2607_11353" x1="82.0085" y1="73.5799" x2="78.8491" y2="64.1089" gradientUnits="userSpaceOnUse">
<stop stop-color="#A259FF"/>
<stop offset="0.666667" stop-color="white"/>
</linearGradient>
<linearGradient id="paint4_linear_2607_11353" x1="79.6331" y1="60.1091" x2="76.4736" y2="50.6381" gradientUnits="userSpaceOnUse">
<stop stop-color="#A259FF"/>
<stop offset="0.666667" stop-color="white"/>
</linearGradient>
<linearGradient id="paint5_linear_2607_11353" x1="71.998" y1="71.2066" x2="108.696" y2="16.1287" gradientUnits="userSpaceOnUse">
<stop stop-color="#A259FF"/>
<stop offset="1" stop-color="#FF6250"/>
</linearGradient>
<linearGradient id="paint6_linear_2607_11353" x1="101.076" y1="134.398" x2="88.4949" y2="75.3487" gradientUnits="userSpaceOnUse">
<stop stop-color="#A259FF"/>
<stop offset="0.666667" stop-color="white"/>
</linearGradient>
<linearGradient id="paint7_linear_2607_11353" x1="143.011" y1="79.5758" x2="172.052" y2="113.377" gradientUnits="userSpaceOnUse">
<stop stop-color="#A259FF"/>
<stop offset="1" stop-color="#377DF7"/>
</linearGradient>
<linearGradient id="paint8_linear_2607_11353" x1="60.7458" y1="143.379" x2="35.9224" y2="118.017" gradientUnits="userSpaceOnUse">
<stop stop-color="#A259FF"/>
<stop offset="0.666667" stop-color="white"/>
</linearGradient>
<linearGradient id="paint9_linear_2607_11353" x1="104.373" y1="114.402" x2="54.4767" y2="14.9264" gradientUnits="userSpaceOnUse">
<stop stop-color="#A259FF"/>
<stop offset="0.666667" stop-color="white"/>
</linearGradient>
<linearGradient id="paint10_linear_2607_11353" x1="48.715" y1="139.254" x2="64.2077" y2="142.24" gradientUnits="userSpaceOnUse">
<stop stop-color="white"/>
<stop offset="1" stop-color="#BCF3FF"/>
</linearGradient>
<linearGradient id="paint11_linear_2607_11353" x1="35.457" y1="77.9891" x2="126.801" y2="95.2228" gradientUnits="userSpaceOnUse">
<stop stop-color="#AFF1FF"/>
<stop offset="1" stop-color="#65C8DE"/>
</linearGradient>
<linearGradient id="paint12_linear_2607_11353" x1="111.053" y1="83.495" x2="112.539" y2="64.687" gradientUnits="userSpaceOnUse">
<stop stop-color="#A259FF"/>
<stop offset="0.666667" stop-color="white"/>
</linearGradient>
<linearGradient id="paint13_linear_2607_11353" x1="171.535" y1="35.9954" x2="184.877" y2="46.4751" gradientUnits="userSpaceOnUse">
<stop stop-color="#A259FF"/>
<stop offset="1" stop-color="#377DF7"/>
</linearGradient>
<linearGradient id="paint14_linear_2607_11353" x1="13.6618" y1="166.786" x2="13.216" y2="180.061" gradientUnits="userSpaceOnUse">
<stop stop-color="#A259FF"/>
<stop offset="1" stop-color="#377DF7"/>
</linearGradient>
<linearGradient id="paint15_linear_2607_11353" x1="157.438" y1="143.899" x2="170.698" y2="143.138" gradientUnits="userSpaceOnUse">
<stop stop-color="#A259FF"/>
<stop offset="1" stop-color="#377DF7"/>
</linearGradient>
</defs>
</svg>
