<svg width="182" height="174" viewBox="0 0 182 174" fill="none" xmlns="http://www.w3.org/2000/svg">
<g id="media">
<g id="media-body">
<path id="Vector" d="M129.18 102.5L58.8478 76.9006C53.4564 74.9387 47.4953 77.7186 45.5331 83.1099L28.9301 128.726C26.9679 134.117 29.7476 140.078 35.1388 142.04L105.472 167.64C110.863 169.602 116.824 166.822 118.786 161.431L135.39 115.815C137.351 110.423 134.572 104.462 129.18 102.5Z" fill="url(#paint0_linear_2607_11314)"/>
<path id="Vector_2" d="M126.325 116.63L147.101 86.703C150.373 81.9901 149.206 75.5173 144.493 72.2455L114.566 51.4691C109.853 48.1972 103.38 49.3654 100.109 54.078L79.3324 84.0046C76.0607 88.7175 77.2283 95.1903 81.9411 98.462L111.868 119.238C116.581 122.51 123.053 121.342 126.325 116.63Z" fill="url(#paint1_linear_2607_11314)"/>
<path id="Vector_3" d="M102.672 92.8128C101.402 94.5646 98.9595 94.9523 97.2077 93.6805C95.4558 92.4097 95.0691 89.9677 96.3399 88.2159C97.6116 86.4641 100.054 86.0764 101.805 87.3481C103.556 88.6198 103.944 91.0619 102.672 92.8128Z" fill="url(#paint2_linear_2607_11314)"/>
<path id="Vector_4" d="M114.233 76.8591L111.816 75.1055L100.271 91.0249L102.689 92.7785L114.233 76.8591Z" fill="url(#paint3_linear_2607_11314)"/>
<path id="Vector_5" d="M116.258 95.637C114.986 97.3888 112.544 97.7765 110.793 96.5047C109.041 95.2339 108.654 92.7919 109.925 91.0401C111.196 89.2883 113.638 88.9006 115.39 90.1723C117.142 91.4441 117.529 93.8861 116.258 95.637Z" fill="url(#paint4_linear_2607_11314)"/>
<path id="Vector_6" d="M127.842 79.6746L125.424 77.9219L113.882 93.8431L116.3 95.5958L127.842 79.6746Z" fill="url(#paint5_linear_2607_11314)"/>
<path id="Vector_7" d="M127.811 79.7148L110.28 77.2329L111.82 75.1016L129.348 77.5916L127.811 79.7148Z" fill="url(#paint6_linear_2607_11314)"/>
<path id="Vector_8" d="M124.901 83.7265L107.369 81.2446L108.909 79.1133L126.445 81.606L124.901 83.7265Z" fill="url(#paint7_linear_2607_11314)"/>
<path id="Vector_9" d="M110.94 50.3869L104.856 22.1986C103.646 16.5906 98.1177 13.0255 92.5099 14.236L55.6494 22.192C50.0416 23.4024 46.4767 28.9299 47.6872 34.538L53.7714 62.7263C54.9818 68.3341 60.509 71.8993 66.1177 70.6892L102.977 62.7327C108.586 61.5225 112.15 55.9954 110.94 50.3869Z" fill="url(#paint8_linear_2607_11314)"/>
<path id="Vector_10" d="M110.46 47.4883L89.7977 30.8984L81.8095 46.6469L73.3946 41.7956L61.7605 57.9905L53.0342 59.8709L53.4497 61.8238C54.852 68.3066 61.2406 72.4307 67.7234 71.0276L101.661 63.7042C108.144 62.3021 112.268 55.9135 110.865 49.431L110.45 47.4883H110.46Z" fill="url(#paint9_linear_2607_11314)"/>
<path id="Vector_11" opacity="0.9" d="M61.5525 39.916C64.7835 39.8328 66.8714 36.5917 65.6141 33.6207C64.9076 31.9586 63.2146 30.8679 61.4067 30.9093C58.1766 30.9925 56.0878 34.2336 57.3451 37.2046C58.0516 38.8667 59.7445 39.9574 61.5525 39.916Z" fill="white"/>
<path id="Vector_12" d="M117.698 159.76C116.261 165.804 109.876 169.243 104.039 167.118L33.8368 141.566C28.8808 139.763 26.0631 134.532 27.2836 129.4L37.2528 87.4947C38.6904 81.4512 45.0748 78.0119 50.9119 80.1369L121.114 105.688C126.069 107.492 128.887 112.723 127.667 117.854L117.698 159.76Z" fill="url(#paint10_linear_2607_11314)"/>
</g>
<g id="media-decor">
<path id="media-circle-03" fill-rule="evenodd" clip-rule="evenodd" d="M41.3981 8.67763C43.1408 8.67763 44.5536 7.26485 44.5536 5.5221C44.5536 3.77944 43.1408 2.36667 41.3981 2.36667C39.6554 2.36667 38.2426 3.77944 38.2426 5.5221C38.2426 7.26485 39.6554 8.67763 41.3981 8.67763ZM41.3981 11.0443C44.4479 11.0443 46.9203 8.57192 46.9203 5.5221C46.9203 2.47237 44.4479 0 41.3981 0C38.3483 0 35.876 2.47237 35.876 5.5221C35.876 8.57192 38.3483 11.0443 41.3981 11.0443Z" fill="white"/>
<path id="media-circle-02" fill-rule="evenodd" clip-rule="evenodd" d="M12.4127 141.83C14.1555 141.83 15.5683 140.417 15.5683 138.674C15.5683 136.931 14.1555 135.519 12.4127 135.519C10.6701 135.519 9.25729 136.931 9.25729 138.674C9.25729 140.417 10.6701 141.83 12.4127 141.83ZM12.4127 144.197C15.4625 144.197 17.9349 141.724 17.9349 138.674C17.9349 135.624 15.4625 133.152 12.4127 133.152C9.363 133.152 6.89062 135.624 6.89062 138.674C6.89062 141.724 9.363 144.197 12.4127 144.197Z" fill="white"/>
<path id="media-circle-01" fill-rule="evenodd" clip-rule="evenodd" d="M170.927 54.0623C172.67 54.0623 174.083 52.6496 174.083 50.9069C174.083 49.1642 172.67 47.7514 170.927 47.7514C169.184 47.7514 167.772 49.1642 167.772 50.9069C167.772 52.6496 169.184 54.0623 170.927 54.0623ZM170.927 56.4292C173.977 56.4292 176.45 53.9563 176.45 50.9069C176.45 47.8571 173.977 45.3848 170.927 45.3848C167.877 45.3848 165.405 47.8571 165.405 50.9069C165.405 53.9563 167.877 56.4292 170.927 56.4292Z" fill="white"/>
<path id="media-cross-02" d="M5.43317 9.22894C5.66524 8.26744 7.0329 8.26744 7.26497 9.22894L8.04613 12.465C8.1291 12.8086 8.39739 13.0769 8.74096 13.1598L11.977 13.941C12.9385 14.1731 12.9385 15.5407 11.977 15.7728L8.74096 16.5539C8.39739 16.6369 8.1291 16.9051 8.04613 17.2488L7.26497 20.4848C7.0329 21.4463 5.66524 21.4463 5.43317 20.4848L4.65201 17.2488C4.56904 16.9051 4.30084 16.6369 3.95718 16.5539L0.721128 15.7728C-0.240376 15.5407 -0.240376 14.1731 0.721128 13.941L3.95718 13.1598C4.30084 13.0769 4.56904 12.8086 4.65201 12.465L5.43317 9.22894Z" fill="white"/>
<path id="media-cross-01" d="M173.824 8.68886C174.078 7.63496 175.577 7.63496 175.831 8.68886L176.688 12.236C176.779 12.6126 177.073 12.9067 177.449 12.9976L180.996 13.8539C182.05 14.1082 182.05 15.6073 180.996 15.8618L177.449 16.718C177.073 16.809 176.779 17.103 176.688 17.4796L175.831 21.0268C175.577 22.0807 174.078 22.0807 173.824 21.0268L172.967 17.4796C172.877 17.103 172.582 16.809 172.205 16.718L168.658 15.8618C167.605 15.6073 167.605 14.1082 168.658 13.8539L172.205 12.9976C172.582 12.9067 172.877 12.6126 172.967 12.236L173.824 8.68886Z" fill="url(#paint11_linear_2607_11314)"/>
<path id="media-triangle-02" d="M15.9768 162.353C17.176 162.161 18.1335 163.338 17.7001 164.473L14.7753 172.132C14.342 173.267 12.8429 173.507 12.0769 172.564L6.90674 166.201C6.14071 165.259 6.68237 163.841 7.88165 163.649L15.9768 162.353Z" fill="url(#paint12_linear_2607_11314)"/>
<path id="media-triangle-01" d="M159.95 141.312C159.65 140.134 160.736 139.074 161.905 139.402L169.799 141.62C170.967 141.949 171.343 143.42 170.473 144.268L164.607 149.995C163.737 150.843 162.276 150.432 161.975 149.255L159.95 141.312Z" fill="url(#paint13_linear_2607_11314)"/>
</g>
</g>
<defs>
<linearGradient id="paint0_linear_2607_11314" x1="107.957" y1="111.168" x2="146.756" y2="203.899" gradientUnits="userSpaceOnUse">
<stop stop-color="#A259FF"/>
<stop offset="0.416667" stop-color="#A259FF" stop-opacity="0"/>
</linearGradient>
<linearGradient id="paint1_linear_2607_11314" x1="119.295" y1="104.463" x2="52.641" y2="124.946" gradientUnits="userSpaceOnUse">
<stop stop-color="#FF7262"/>
<stop offset="0.317708" stop-color="#A259FF"/>
</linearGradient>
<linearGradient id="paint2_linear_2607_11314" x1="108.817" y1="74.6841" x2="116.205" y2="90.2449" gradientUnits="userSpaceOnUse">
<stop stop-color="#3B3B3B"/>
<stop offset="1" stop-color="#A259FF"/>
</linearGradient>
<linearGradient id="paint3_linear_2607_11314" x1="134.915" y1="47.9651" x2="141.428" y2="54.3591" gradientUnits="userSpaceOnUse">
<stop stop-color="#3B3B3B"/>
<stop offset="1" stop-color="#A259FF"/>
</linearGradient>
<linearGradient id="paint4_linear_2607_11314" x1="122.403" y1="77.5093" x2="129.789" y2="93.0691" gradientUnits="userSpaceOnUse">
<stop stop-color="#3B3B3B"/>
<stop offset="1" stop-color="#A259FF"/>
</linearGradient>
<linearGradient id="paint5_linear_2607_11314" x1="148.519" y1="50.7768" x2="155.033" y2="57.1701" gradientUnits="userSpaceOnUse">
<stop stop-color="#3B3B3B"/>
<stop offset="1" stop-color="#A259FF"/>
</linearGradient>
<linearGradient id="paint6_linear_2607_11314" x1="131.917" y1="66.6333" x2="131.651" y2="84.9376" gradientUnits="userSpaceOnUse">
<stop stop-color="#3B3B3B"/>
<stop offset="1" stop-color="#A259FF"/>
</linearGradient>
<linearGradient id="paint7_linear_2607_11314" x1="129.013" y1="70.6477" x2="128.745" y2="88.952" gradientUnits="userSpaceOnUse">
<stop stop-color="#3B3B3B"/>
<stop offset="1" stop-color="#A259FF"/>
</linearGradient>
<linearGradient id="paint8_linear_2607_11314" x1="87.5679" y1="21.913" x2="99.3306" y2="60.3595" gradientUnits="userSpaceOnUse">
<stop stop-color="#FF7262"/>
<stop offset="1" stop-color="#A259FF"/>
</linearGradient>
<linearGradient id="paint9_linear_2607_11314" x1="79.2569" y1="86.3193" x2="66.4797" y2="39.1233" gradientUnits="userSpaceOnUse">
<stop stop-color="#A259FF"/>
<stop offset="1" stop-color="white"/>
</linearGradient>
<linearGradient id="paint10_linear_2607_11314" x1="100.879" y1="146.831" x2="52.0189" y2="22.5158" gradientUnits="userSpaceOnUse">
<stop stop-color="#A259FF"/>
<stop offset="0.666667" stop-color="white"/>
</linearGradient>
<linearGradient id="paint11_linear_2607_11314" x1="177.803" y1="10.9915" x2="191.146" y2="21.4712" gradientUnits="userSpaceOnUse">
<stop stop-color="#A259FF"/>
<stop offset="1" stop-color="#377DF7"/>
</linearGradient>
<linearGradient id="paint12_linear_2607_11314" x1="17.2135" y1="166.237" x2="16.7678" y2="179.512" gradientUnits="userSpaceOnUse">
<stop stop-color="#A259FF"/>
<stop offset="1" stop-color="#377DF7"/>
</linearGradient>
<linearGradient id="paint13_linear_2607_11314" x1="163.706" y1="139.727" x2="176.967" y2="138.967" gradientUnits="userSpaceOnUse">
<stop stop-color="#A259FF"/>
<stop offset="1" stop-color="#377DF7"/>
</linearGradient>
</defs>
</svg>
