<svg width="185" height="190" viewBox="0 0 185 190" fill="none" xmlns="http://www.w3.org/2000/svg">
<g id="wallet">
<g id="wallet-body">
<path id="Vector" d="M152.589 92.6394L135.476 95.9664C130.607 96.912 127.427 101.627 128.374 106.495C129.32 111.364 134.034 114.543 138.903 113.598L156.017 110.271C160.886 109.324 164.065 104.61 163.118 99.7417C162.173 94.8731 157.458 91.6928 152.589 92.6394Z" fill="url(#paint0_linear_2607_11286)"/>
<path id="Vector_2" d="M159.314 101.421C159.401 99.2041 157.674 97.3372 155.457 97.2512C153.24 97.1642 151.373 98.8916 151.287 101.108C151.2 103.325 152.928 105.191 155.144 105.278C157.362 105.364 159.228 103.637 159.314 101.421Z" fill="#EBEBEB"/>
<path id="Vector_3" d="M155.718 103.421C156.91 103.189 157.689 102.035 157.458 100.844C157.226 99.6521 156.072 98.8741 154.88 99.105C153.689 99.3369 152.91 100.491 153.141 101.683C153.373 102.874 154.527 103.653 155.718 103.421Z" fill="#DBDBDB"/>
<path id="Vector_4" d="M125.455 65.5919L38.0735 82.5775C33.1628 83.5313 29.9558 88.2868 30.9103 93.1971L42.7166 153.934C43.6711 158.846 48.4257 162.052 53.3364 161.097L140.718 144.113C145.629 143.158 148.836 138.404 147.882 133.492L136.075 72.7551C135.121 67.8447 130.366 64.6374 125.455 65.5919Z" fill="url(#paint1_linear_2607_11286)"/>
<path id="Vector_5" d="M123.858 37.9734L141.708 84.1108C142.707 86.6896 141.422 89.59 138.848 90.5873L65.6751 118.896C63.1005 119.894 60.2002 118.61 59.2007 116.031L41.3515 69.8934C40.425 67.4931 41.6153 64.796 44.0163 63.8695L117.832 35.3144C120.233 34.3879 122.93 35.5781 123.856 37.9792L123.858 37.9734Z" fill="url(#paint2_linear_2607_11286)"/>
<path id="Vector_6" d="M127.296 82.2098C128.211 84.5821 127.034 87.2496 124.662 88.1645C122.29 89.0803 119.622 87.9027 118.707 85.5304C117.791 83.1591 118.969 80.4915 121.341 79.5757C123.713 78.6609 126.381 79.8384 127.296 82.2098Z" fill="url(#paint3_linear_2607_11286)"/>
<path id="Vector_7" d="M132.582 80.1606C133.498 82.5328 132.321 85.2004 129.949 86.1162C127.577 87.031 124.909 85.8535 123.994 83.4821C123.079 81.1098 124.256 78.4423 126.628 77.5274C129 76.6116 131.668 77.7892 132.582 80.1606Z" fill="url(#paint4_linear_2607_11286)"/>
<path id="Vector_8" d="M63.4063 65.4745L51.4178 70.1122C50.4512 70.4863 49.9708 71.5733 50.3447 72.5398L53.132 79.7445C53.5059 80.711 54.5927 81.1919 55.5592 80.8178L67.5473 76.1793C68.5147 75.8061 68.9948 74.7191 68.6207 73.7526L65.8335 66.5479C65.4594 65.5811 64.3725 65.1006 63.4063 65.4745Z" fill="url(#paint5_linear_2607_11286)"/>
<path id="Vector_9" d="M117.972 51.1103L110.962 53.8202C109.34 54.4431 107.519 53.6393 106.891 52.0183C106.269 50.3956 107.072 48.5748 108.694 47.9477L115.703 45.2379C117.324 44.6109 119.147 45.4188 119.773 47.0398C120.397 48.6624 119.592 50.4833 117.972 51.1103Z" fill="white"/>
<path id="Vector_10" d="M57.0133 91.4668L56.5235 92.0855C56.5235 92.0855 56.483 92.1298 56.4538 92.1407C56.3954 92.1634 56.3325 92.1489 56.2915 92.1172C56.2136 92.051 56.2034 91.9496 56.2682 91.8816L56.9325 91.0193C56.989 90.9541 57.1029 90.9396 57.1677 90.9958C57.2029 91.0257 57.2215 91.061 57.2333 91.1045L58.831 95.2295C58.863 95.3128 58.8277 95.4079 58.736 95.4433C58.6525 95.475 58.5544 95.4315 58.5224 95.3481L57.0217 91.4632L57.0133 91.4668Z" fill="#F8F8F8"/>
<path id="Vector_11" d="M59.8797 94.6841L61.2435 91.9775C61.4042 91.6478 61.4191 91.2882 61.2958 90.9667C61.1901 90.6913 60.9802 90.4567 60.6951 90.3118C60.3738 90.1487 60.0072 90.1406 59.6959 90.2647C59.4122 90.3743 59.1738 90.5754 59.0254 90.8625L58.8853 91.146C58.8468 91.2321 58.741 91.2683 58.6669 91.2248C58.5803 91.1859 58.5444 91.0808 58.5878 91.0065L58.7262 90.7185C58.9138 90.3598 59.2228 90.0926 59.5775 89.9567C59.9695 89.8054 60.4235 89.8036 60.842 90.021C61.2136 90.204 61.4732 90.5065 61.6061 90.8525C61.7583 91.2493 61.7535 91.7103 61.5459 92.1297L60.3784 94.4494L62.5057 93.6324C62.5875 93.5962 62.6841 93.636 62.7193 93.7275C62.7513 93.8109 62.7076 93.9096 62.6242 93.9413L60.1205 94.9114L60.0955 94.9214C60.0496 94.9395 59.9988 94.944 59.9611 94.9205C59.8755 94.8716 59.8386 94.7755 59.8772 94.6895L59.8797 94.6841Z" fill="#F8F8F8"/>
<path id="Vector_12" d="M64.8647 88.2322L64.1654 89.8744C64.4707 89.8246 64.7932 89.8536 65.0939 89.9877C65.5033 90.1697 65.804 90.504 65.9544 90.8962C66.1048 91.2884 66.1093 91.7368 65.9227 92.148C65.7406 92.5583 65.4073 92.8627 65.0169 93.0175C64.6337 93.1643 64.1854 93.1688 63.7739 92.9822C63.6889 92.9478 63.6463 92.85 63.6875 92.7576C63.7202 92.6679 63.8203 92.6299 63.9127 92.6706C64.2388 92.8092 64.5875 92.8092 64.8964 92.6906C65.2053 92.5719 65.4689 92.3364 65.6174 92.0121C65.7633 91.6824 65.7578 91.331 65.6392 91.0221C65.5205 90.7132 65.2859 90.4496 64.9598 90.3119C64.6346 90.1634 64.2832 90.1697 63.9743 90.2875C63.9245 90.3074 63.8683 90.2993 63.8209 90.2748L63.8125 90.2784C63.7218 90.2413 63.6817 90.1371 63.7245 90.0483L64.3964 88.4695L62.6736 89.1308C62.5834 89.1706 62.4853 89.1272 62.4517 89.0393C62.4164 88.9478 62.4601 88.8491 62.5477 88.8156L64.6501 88.0085C64.7397 87.9695 64.8385 88.013 64.872 88.1009C64.8819 88.1253 64.8828 88.1543 64.8783 88.1797C64.8783 88.2032 64.872 88.225 64.8638 88.2422L64.8647 88.2322Z" fill="#F8F8F8"/>
<path id="Vector_13" d="M69.9064 90.0589L67.4744 91.0019L67.4535 91.01C67.42 91.0227 67.3793 91.029 67.3448 91.0136C67.2543 90.991 67.2062 90.8896 67.2407 90.8044L68.5894 86.5635L68.5939 86.5517C68.6256 86.4584 68.7099 86.4167 68.8032 86.4475C68.8358 86.4593 68.8602 86.4838 68.882 86.5037C68.8865 86.5164 68.8983 86.5209 68.9001 86.5254L68.9082 86.5463L70.0994 89.626L70.4001 89.51C70.4916 89.4756 70.5903 89.5191 70.622 89.6024C70.6537 89.6858 70.6102 89.7836 70.5224 89.8171L70.2226 89.933L70.5188 90.7048C70.5505 90.7881 70.507 90.8859 70.4191 90.9194C70.3358 90.9521 70.238 90.9077 70.2053 90.8243L69.9092 90.0526L69.9064 90.0589ZM69.7887 89.7501L68.7697 87.1214L67.6646 90.5752L69.7914 89.7582L69.7887 89.7501Z" fill="#F8F8F8"/>
<path id="Vector_14" d="M75.7207 88.3613C75.6301 88.3242 75.5902 88.22 75.6346 88.1357C75.6736 88.0497 75.7759 88.0053 75.8638 88.0479C76.1899 88.1865 76.5395 88.1865 76.8475 88.0678C77.1564 87.9492 77.4118 87.7173 77.5585 87.3885C77.7053 87.0588 77.7007 86.7109 77.5821 86.403C77.4625 86.0895 77.227 85.826 76.9036 85.6819C76.5821 85.5425 76.2288 85.5443 75.9199 85.662C75.6065 85.7825 75.3475 86.0162 75.2007 86.345C75.1618 86.4319 75.0576 86.4718 74.9752 86.4319C74.9498 86.4274 74.929 86.4111 74.919 86.3957L74.9154 86.3876C74.9154 86.3876 74.9027 86.3785 74.8991 86.3704C74.8864 86.3604 74.8783 86.3396 74.8719 86.3232C74.8683 86.3151 74.8674 86.3006 74.8629 86.2879L74.3792 84.3921C74.3602 84.3423 74.3692 84.2906 74.3973 84.2517C74.4127 84.2164 74.4453 84.1901 74.487 84.1738L76.5812 83.3703C76.6709 83.3305 76.7687 83.374 76.8031 83.4618C76.8393 83.5579 76.794 83.652 76.7071 83.6856L74.746 84.4383L75.1029 85.8423C75.2795 85.6158 75.5151 85.4446 75.7868 85.3405C76.179 85.1901 76.6156 85.1801 77.0323 85.3694C77.4507 85.5488 77.7397 85.8776 77.8937 86.278C78.0404 86.662 78.0567 87.1158 77.8656 87.5289C77.6817 87.9338 77.3448 88.2408 76.9571 88.3894C76.5649 88.5397 76.1165 88.5443 75.7071 88.3622L75.7207 88.3613Z" fill="#F8F8F8"/>
<path id="Vector_15" d="M78.8136 83.6403C78.9132 82.9754 79.2746 82.3721 80.0101 82.056C80.0908 82.0162 80.1886 82.0596 80.2294 82.1403C80.2638 82.2317 80.2203 82.3296 80.1388 82.3658C79.5183 82.633 79.2475 83.1104 79.1424 83.6864C79.089 84.008 79.1107 84.364 79.1714 84.7091C79.3245 84.2961 79.6433 83.9437 80.0862 83.7743C80.9159 83.4555 81.8335 83.864 82.1478 84.6819C82.463 85.5035 82.0582 86.4192 81.2339 86.7408C80.4295 87.0497 79.531 86.6674 79.1958 85.8821C79.1469 85.7906 79.1098 85.6946 79.0699 85.5904C78.8453 84.9926 78.7149 84.2906 78.8181 83.6384L78.8136 83.6403ZM79.4993 85.7363C79.512 85.7698 79.5301 85.7915 79.5437 85.8151C79.5518 85.8359 79.5563 85.8486 79.5527 85.864C79.8516 86.4057 80.5174 86.6566 81.1062 86.431C81.7611 86.1801 82.0826 85.4482 81.8362 84.806C81.5899 84.1638 80.858 83.8413 80.2031 84.0932C79.5609 84.3395 79.2384 85.0705 79.4857 85.7136L79.4947 85.7381L79.4993 85.7363Z" fill="#F8F8F8"/>
<path id="Vector_16" d="M84.2713 85.3164L84.4071 80.7322L82.2332 81.5664C82.1517 81.6017 82.0548 81.5628 82.0231 81.4794C81.9914 81.3961 82.0349 81.2974 82.1182 81.2657L84.4959 80.3526C84.524 80.3273 84.5539 80.3164 84.5919 80.3164C84.6372 80.3227 84.6852 80.3472 84.7124 80.3798C84.7287 80.3979 84.7378 80.4088 84.7441 80.4251C84.7568 80.4586 84.7577 80.4867 84.7504 80.5184L84.61 85.3246C84.6073 85.3925 84.5629 85.4532 84.505 85.4749C84.4796 85.4849 84.4669 85.4894 84.437 85.4867C84.3455 85.484 84.2713 85.4025 84.2667 85.3173L84.2713 85.3164Z" fill="#F8F8F8"/>
<path id="Vector_17" d="M87.0532 79.3224C87.5668 79.1258 88.152 79.3794 88.3494 79.8921C88.469 80.2055 88.4192 80.5352 88.257 80.7988C88.8739 80.8106 89.4509 81.1919 89.6837 81.797C89.9943 82.6059 89.5976 83.5053 88.7896 83.8196C87.9844 84.1294 87.0813 83.7336 86.767 82.9265C86.5342 82.3215 86.7045 81.653 87.1447 81.2309C86.854 81.1457 86.5994 80.9329 86.4799 80.6195C86.2824 80.1068 86.5297 79.528 87.0514 79.3278L87.0532 79.3224ZM88.6737 83.5053C89.3159 83.259 89.6221 82.5479 89.3793 81.9139C89.1375 81.2843 88.43 80.9619 87.7869 81.2091C87.1529 81.4519 86.8404 82.1702 87.0822 82.8006C87.3268 83.4383 88.0396 83.749 88.6737 83.5053ZM87.6601 80.8894C88.0025 80.7481 88.1773 80.3559 88.0451 80.009C87.9119 79.6629 87.5224 79.4963 87.1764 79.6294C86.8304 79.7626 86.6619 80.1475 86.7951 80.4936C86.9282 80.8396 87.3159 81.0162 87.6637 80.8876L87.6601 80.8894Z" fill="#F8F8F8"/>
<path id="Vector_18" d="M95.0374 76.234C95.8092 75.9378 96.6525 76.2657 97.0193 76.9713C97.032 76.9813 97.0356 76.9894 97.0447 77.0003C97.099 77.118 97.1534 77.2458 97.2041 77.3789C97.4333 77.9758 97.5628 78.6869 97.4677 79.3363C97.3635 79.9885 96.9985 80.6072 96.2711 80.9197L96.263 80.9233C96.1715 80.9586 96.0764 80.9233 96.0438 80.84C96.0094 80.7476 96.0456 80.657 96.1344 80.6135C96.7449 80.3454 97.0347 79.8662 97.1307 79.2929C97.1805 78.9631 97.1706 78.6126 97.1017 78.2702C96.9487 78.6833 96.6244 79.0229 96.1742 79.1959C95.3563 79.5093 94.4396 79.1153 94.1162 78.2865C93.8028 77.4695 94.2113 76.551 95.0293 76.2376L95.0374 76.234ZM96.7829 77.2539C96.5365 76.6117 95.8119 76.2956 95.157 76.5474C94.5148 76.7938 94.1914 77.5211 94.436 78.1597C94.6878 78.8146 95.4142 79.1235 96.0564 78.8771C96.7113 78.6262 97.0347 77.9088 96.7784 77.2548L96.7829 77.2539Z" fill="#F8F8F8"/>
<path id="Vector_19" d="M98.5398 77.4637C98.3079 76.8595 98.2463 76.2508 98.3605 75.7237C98.4818 75.2182 98.7681 74.7925 99.2228 74.6177C99.6775 74.4429 100.179 74.5661 100.607 74.8568C101.038 75.1702 101.417 75.6566 101.653 76.2599C101.885 76.8641 101.934 77.4773 101.821 77.9945C101.701 78.5045 101.416 78.9347 100.961 79.1095C100.506 79.2834 100.004 79.1602 99.5742 78.8613C99.1422 78.5588 98.7708 78.0651 98.538 77.4601L98.5398 77.4637ZM98.8523 77.3441C99.0643 77.8948 99.4049 78.3333 99.7717 78.5896C100.136 78.8423 100.52 78.9202 100.841 78.7961C101.162 78.6729 101.386 78.3577 101.493 77.9247C101.589 77.49 101.553 76.9347 101.341 76.384C101.13 75.8333 100.781 75.3976 100.418 75.1394C100.045 74.8767 99.6702 74.8097 99.3487 74.9329C99.0271 75.0561 98.7907 75.3622 98.6974 75.8052C98.6014 76.2391 98.6458 76.7916 98.8586 77.3468L98.8523 77.3441Z" fill="#F8F8F8"/>
<path id="Vector_20" d="M103.035 73.6656L102.546 74.2851C102.546 74.2851 102.505 74.3286 102.476 74.3404C102.417 74.363 102.354 74.3485 102.313 74.3168C102.235 74.2507 102.225 74.1493 102.29 74.0813L102.954 73.2181C103.011 73.1538 103.124 73.1384 103.19 73.1955C103.225 73.2244 103.243 73.2607 103.255 73.3042L104.853 77.4282C104.884 77.5125 104.849 77.6067 104.757 77.642C104.674 77.6746 104.576 77.6302 104.544 77.5469L103.044 73.6628L103.035 73.6656Z" fill="#F8F8F8"/>
<path id="Vector_21" d="M105.901 76.8792L107.264 74.1736C107.425 73.8439 107.44 73.4834 107.317 73.1627C107.211 72.8874 107.001 72.6519 106.716 72.5079C106.395 72.3439 106.028 72.3367 105.717 72.4608C105.433 72.5694 105.196 72.7751 105.046 73.0577L104.906 73.3412C104.867 73.4281 104.761 73.4635 104.688 73.42C104.601 73.3819 104.565 73.276 104.608 73.2017L104.747 72.9146C104.934 72.555 105.243 72.2877 105.596 72.1473C105.989 71.997 106.443 71.9952 106.861 72.2126C107.232 72.3955 107.492 72.6981 107.625 73.0441C107.778 73.4399 107.772 73.9019 107.565 74.3213L106.397 76.641L108.525 75.824C108.606 75.7877 108.705 75.8312 108.739 75.9191C108.77 76.0024 108.727 76.1002 108.644 76.1329L106.14 77.103L106.115 77.1129C106.068 77.1301 106.018 77.1356 105.981 77.112C105.895 77.0631 105.857 76.9671 105.896 76.881L105.901 76.8792Z" fill="#F8F8F8"/>
<path id="Vector_22" d="M114.732 68.9412L114.032 70.5843C114.338 70.5336 114.661 70.5626 114.961 70.6966C115.371 70.8787 115.672 71.2129 115.822 71.6052C115.972 71.9974 115.977 72.4457 115.79 72.857C115.607 73.2673 115.275 73.5716 114.888 73.7247C114.505 73.8724 114.052 73.8787 113.641 73.6921C113.556 73.6577 113.513 73.559 113.555 73.4666C113.589 73.3814 113.687 73.3389 113.78 73.3796C114.106 73.5182 114.455 73.5182 114.764 73.3995C115.072 73.2809 115.337 73.0454 115.484 72.7211C115.631 72.3923 115.625 72.0399 115.507 71.7311C115.388 71.4231 115.153 71.1586 114.827 71.0209C114.502 70.8724 114.15 70.8787 113.841 70.9974C113.791 71.0164 113.736 71.0091 113.688 70.9838L113.68 70.9874C113.589 70.9503 113.549 70.8461 113.592 70.7573L114.263 69.1794L112.54 69.8407C112.451 69.8796 112.353 69.8361 112.318 69.7483C112.284 69.6568 112.328 69.5581 112.414 69.5245L114.517 68.7175C114.607 68.6785 114.705 68.722 114.739 68.8099C114.749 68.8352 114.75 68.8633 114.745 68.8887C114.745 68.9131 114.739 68.934 114.731 68.9512L114.732 68.9412Z" fill="#F8F8F8"/>
<path id="Vector_23" d="M119.774 70.7672L117.339 71.7029L117.332 71.7102L117.32 71.7147C117.286 71.7274 117.247 71.7382 117.211 71.7183C117.12 71.6957 117.072 71.5942 117.107 71.5091L118.456 67.2681L118.46 67.2563C118.492 67.1631 118.576 67.1214 118.669 67.1531C118.702 67.164 118.726 67.1884 118.748 67.2083C118.753 67.221 118.761 67.2274 118.766 67.2301L118.774 67.2509L119.966 70.3306L120.266 70.2156C120.358 70.1803 120.456 70.2237 120.488 70.3071C120.52 70.3904 120.476 70.4891 120.389 70.5226L120.089 70.6377L120.385 71.4094C120.417 71.4928 120.373 71.5906 120.285 71.6241C120.202 71.6567 120.104 71.6132 120.072 71.529L119.775 70.7573L119.774 70.7672ZM119.656 70.4592L118.638 67.8297L117.532 71.2835L119.659 70.4674L119.656 70.4592Z" fill="#F8F8F8"/>
<path id="Vector_24" d="M121.741 70.557C121.651 70.5198 121.611 70.4156 121.655 70.3314C121.693 70.2454 121.798 70.2046 121.884 70.2435C122.21 70.3812 122.559 70.3812 122.868 70.2635C123.177 70.1448 123.432 69.9129 123.579 69.5832C123.726 69.2544 123.721 68.9066 123.603 68.5977C123.482 68.2852 123.248 68.0216 122.924 67.8776C122.601 67.7336 122.248 67.739 121.94 67.8577C121.627 67.9781 121.368 68.2118 121.221 68.5407C121.182 68.6276 121.08 68.6711 120.996 68.6267C120.97 68.6222 120.95 68.6068 120.94 68.5914L120.936 68.5832C120.936 68.5832 120.923 68.5742 120.92 68.5651C120.906 68.556 120.899 68.5352 120.892 68.5189C120.889 68.5099 120.888 68.4963 120.883 68.4836L120.4 66.5877C120.381 66.537 120.39 66.4863 120.418 66.4464C120.433 66.412 120.466 66.3848 120.507 66.3695L122.601 65.5654C122.691 65.526 122.789 65.5696 122.823 65.6572C122.86 65.7535 122.815 65.8468 122.727 65.8803L120.767 66.633L121.123 68.037C121.302 67.816 121.536 67.6394 121.807 67.5361C122.199 67.3849 122.635 67.3758 123.053 67.5651C123.471 67.7445 123.76 68.0733 123.914 68.4736C124.061 68.8577 124.077 69.3106 123.886 69.7236C123.702 70.1294 123.365 70.4356 122.978 70.585C122.585 70.7354 122.137 70.7399 121.728 70.5579L121.741 70.557Z" fill="#F8F8F8"/>
<path id="Vector_25" d="M124.834 65.8358C124.933 65.1706 125.293 64.5633 126.03 64.2516C126.111 64.2113 126.209 64.2549 126.248 64.3352C126.284 64.4269 126.24 64.525 126.159 64.5613C125.54 64.8322 125.267 65.3056 125.162 65.882C125.109 66.2036 125.131 66.5586 125.191 66.9046C125.344 66.4916 125.663 66.1392 126.105 65.9699C126.936 65.6508 127.854 66.0595 128.168 66.8766C128.483 67.699 128.078 68.6148 127.254 68.9364C126.449 69.2452 125.551 68.863 125.216 68.0768C125.166 67.9862 125.13 67.8902 125.09 67.786C124.864 67.1873 124.734 66.4862 124.838 65.834L124.834 65.8358ZM125.519 67.9318C125.532 67.9653 125.55 67.9871 125.564 68.0106C125.572 68.0315 125.576 68.0441 125.573 68.0595C125.872 68.6003 126.537 68.8521 127.125 68.6266C127.78 68.3748 128.103 67.6438 127.856 67.0016C127.61 66.3585 126.878 66.0369 126.223 66.2878C125.581 66.5351 125.258 67.2661 125.505 67.9083L125.515 67.9336L125.519 67.9318Z" fill="#F8F8F8"/>
<path id="Vector_26" d="M101.307 87.834L62.125 102.993L62.8698 104.917L102.052 89.7588L101.307 87.834Z" fill="url(#paint6_linear_2607_11286)"/>
<path id="Vector_27" d="M91.5202 96.5391L63.7803 107.271L64.5248 109.197L92.2648 98.4648L91.5202 96.5391Z" fill="url(#paint7_linear_2607_11286)"/>
<path id="Vector_28" d="M102.1 50.5015L84.4855 57.3158C83.9538 57.5215 83.6893 58.1191 83.8949 58.6507C84.1005 59.1823 84.6984 59.4467 85.2301 59.2409L102.844 52.4266C103.376 52.2209 103.64 51.6233 103.434 51.0917C103.228 50.5601 102.63 50.2957 102.1 50.5015Z" fill="#3B3B3B"/>
<path id="Vector_29" d="M134.377 99.6836L42.5723 117.53L49.7165 154.283L141.522 136.438L134.377 99.6836Z" fill="url(#paint8_linear_2607_11286)"/>
<path id="Vector_30" opacity="0.2" d="M134.377 99.6836L42.5723 117.53L49.7165 154.283L141.522 136.438L134.377 99.6836Z" fill="black"/>
<path id="Vector_31" d="M142.857 158.436L52.4074 163.013C47.9038 163.241 43.9185 160.121 43.0581 155.695L30.0378 88.7109C29.7305 87.1303 31.3547 85.8739 32.8074 86.5687C34.4934 87.3739 36.3668 87.7154 38.234 87.5578L119.488 80.6076C124.101 80.2127 128.268 83.3594 129.151 87.9038L142.861 158.43C142.861 158.432 142.859 158.435 142.857 158.436Z" fill="url(#paint9_linear_2607_11286)"/>
<path id="Vector_32" d="M123.646 125.446C125.751 125.038 127.08 122.762 126.613 120.364C126.147 117.966 124.063 116.354 121.958 116.762C119.853 117.172 118.524 119.447 118.991 121.846C119.457 124.243 121.541 125.856 123.646 125.446Z" fill="#EBEBEB"/>
<path id="Vector_33" d="M124.574 120.761C124.79 121.875 124.173 122.933 123.194 123.123C122.216 123.313 121.247 122.564 121.031 121.45C120.814 120.336 121.432 119.278 122.41 119.088C123.388 118.898 124.358 119.647 124.574 120.761Z" fill="#DBDBDB"/>
</g>
<g id="wallet-decor">
<path id="wallet-circle-03" fill-rule="evenodd" clip-rule="evenodd" d="M80.8401 9.38075C82.5828 9.38075 83.9959 7.96798 83.9959 6.22523C83.9959 4.48256 82.5828 3.06979 80.8401 3.06979C79.0973 3.06979 77.6852 4.48256 77.6852 6.22523C77.6852 7.96798 79.0973 9.38075 80.8401 9.38075ZM80.8401 11.7474C83.8899 11.7474 86.3627 9.27505 86.3627 6.22523C86.3627 3.1755 83.8899 0.703125 80.8401 0.703125C77.7903 0.703125 75.3184 3.1755 75.3184 6.22523C75.3184 9.27505 77.7903 11.7474 80.8401 11.7474Z" fill="white"/>
<path id="wallet-circle-02" fill-rule="evenodd" clip-rule="evenodd" d="M5.6598 154.308C7.40255 154.308 8.81532 152.895 8.81532 151.153C8.81532 149.41 7.40255 147.998 5.6598 147.998C3.91714 147.998 2.50436 149.41 2.50436 151.153C2.50436 152.895 3.91714 154.308 5.6598 154.308ZM5.6598 156.675C8.70962 156.675 11.182 154.202 11.182 151.153C11.182 148.103 8.70962 145.631 5.6598 145.631C2.61007 145.631 0.137695 148.103 0.137695 151.153C0.137695 154.202 2.61007 156.675 5.6598 156.675Z" fill="white"/>
<path id="wallet-circle-01" fill-rule="evenodd" clip-rule="evenodd" d="M178.668 147.062C180.411 147.062 181.824 145.649 181.824 143.906C181.824 142.164 180.411 140.752 178.668 140.752C176.925 140.752 175.513 142.164 175.513 143.906C175.513 145.649 176.925 147.062 178.668 147.062ZM178.668 149.429C181.718 149.429 184.191 146.956 184.191 143.906C184.191 140.857 181.718 138.385 178.668 138.385C175.618 138.385 173.146 140.857 173.146 143.906C173.146 146.956 175.618 149.429 178.668 149.429Z" fill="white"/>
<path id="wallet-cross-02" d="M29.4771 23.518C29.7092 22.5565 31.0768 22.5565 31.3089 23.518L32.0901 26.7541C32.173 27.0976 32.4413 27.3659 32.7849 27.4489L36.021 28.23C36.9825 28.4621 36.9825 29.8298 36.021 30.0618L32.7849 30.843C32.4413 30.926 32.173 31.1942 32.0901 31.5378L31.3089 34.7739C31.0768 35.7354 29.7092 35.7354 29.4771 34.7739L28.696 31.5378C28.613 31.1942 28.3448 30.926 28.0011 30.843L24.7651 30.0618C23.8036 29.8298 23.8036 28.4621 24.7651 28.23L28.0011 27.4489C28.3448 27.3659 28.613 27.0976 28.696 26.7541L29.4771 23.518Z" fill="white"/>
<path id="wallet-cross-01" d="M163.45 166.187C163.704 165.133 165.203 165.133 165.458 166.187L166.314 169.734C166.404 170.11 166.699 170.405 167.076 170.495L170.623 171.352C171.676 171.606 171.676 173.105 170.623 173.36L167.076 174.216C166.699 174.307 166.404 174.601 166.314 174.977L165.458 178.524C165.203 179.579 163.704 179.579 163.45 178.524L162.593 174.977C162.502 174.601 162.208 174.307 161.832 174.216L158.285 173.36C157.231 173.105 157.231 171.606 158.285 171.352L161.832 170.495C162.208 170.405 162.502 170.11 162.593 169.734L163.45 166.187Z" fill="url(#paint10_linear_2607_11286)"/>
<path id="wallet-triangle-02" d="M14.6584 178.454C15.8577 178.262 16.8151 179.44 16.3818 180.575L13.4569 188.233C13.0236 189.368 11.5245 189.608 10.7586 188.665L5.58838 182.303C4.82235 181.361 5.36401 179.943 6.56329 179.75L14.6584 178.454Z" fill="url(#paint11_linear_2607_11286)"/>
<path id="wallet-triangle-01" d="M168.598 31.5064C168.298 30.3295 169.385 29.2691 170.554 29.5977L178.447 31.8157C179.615 32.1442 179.991 33.6153 179.122 34.4637L173.255 40.1898C172.385 41.0381 170.924 40.6274 170.624 39.4505L168.598 31.5064Z" fill="url(#paint12_linear_2607_11286)"/>
</g>
</g>
<defs>
<linearGradient id="paint0_linear_2607_11286" x1="132.285" y1="96.5859" x2="164.985" y2="102.24" gradientUnits="userSpaceOnUse">
<stop stop-color="#A259FF"/>
<stop offset="1" stop-color="#3B3B3B"/>
</linearGradient>
<linearGradient id="paint1_linear_2607_11286" x1="110.77" y1="178.858" x2="75.4444" y2="109.488" gradientUnits="userSpaceOnUse">
<stop stop-color="#A259FF"/>
<stop offset="1" stop-color="#3B3B3B"/>
</linearGradient>
<linearGradient id="paint2_linear_2607_11286" x1="52.9959" y1="60.2024" x2="138.069" y2="52.8543" gradientUnits="userSpaceOnUse">
<stop stop-color="#A259FF"/>
<stop offset="1" stop-color="#FF6250"/>
</linearGradient>
<linearGradient id="paint3_linear_2607_11286" x1="118.444" y1="80.6881" x2="127.374" y2="79.1002" gradientUnits="userSpaceOnUse">
<stop stop-color="#A259FF"/>
<stop offset="1" stop-color="#FF6250"/>
</linearGradient>
<linearGradient id="paint4_linear_2607_11286" x1="123.732" y1="78.6388" x2="132.66" y2="77.051" gradientUnits="userSpaceOnUse">
<stop stop-color="#A259FF"/>
<stop offset="1" stop-color="#3B3B3B"/>
</linearGradient>
<linearGradient id="paint5_linear_2607_11286" x1="52.1753" y1="69.8197" x2="68.1442" y2="68.2653" gradientUnits="userSpaceOnUse">
<stop stop-color="#A259FF"/>
<stop offset="1" stop-color="#3B3B3B"/>
</linearGradient>
<linearGradient id="paint6_linear_2607_11286" x1="68.4686" y1="100.538" x2="74.5012" y2="109.013" gradientUnits="userSpaceOnUse">
<stop stop-color="#A259FF"/>
<stop offset="1" stop-color="#FF6250"/>
</linearGradient>
<linearGradient id="paint7_linear_2607_11286" x1="68.2711" y1="105.534" x2="74.8907" y2="113.164" gradientUnits="userSpaceOnUse">
<stop stop-color="#A259FF"/>
<stop offset="1" stop-color="#FF6250"/>
</linearGradient>
<linearGradient id="paint8_linear_2607_11286" x1="57.4359" y1="114.64" x2="139.169" y2="136.115" gradientUnits="userSpaceOnUse">
<stop stop-color="#A259FF"/>
<stop offset="1" stop-color="#3B3B3B"/>
</linearGradient>
<linearGradient id="paint9_linear_2607_11286" x1="118.466" y1="136.125" x2="-23.1229" y2="68.1719" gradientUnits="userSpaceOnUse">
<stop stop-color="#A259FF"/>
<stop offset="0.666667" stop-color="white"/>
</linearGradient>
<linearGradient id="paint10_linear_2607_11286" x1="167.429" y1="168.49" x2="180.771" y2="178.969" gradientUnits="userSpaceOnUse">
<stop stop-color="#A259FF"/>
<stop offset="1" stop-color="#377DF7"/>
</linearGradient>
<linearGradient id="paint11_linear_2607_11286" x1="15.8952" y1="182.338" x2="15.4494" y2="195.614" gradientUnits="userSpaceOnUse">
<stop stop-color="#A259FF"/>
<stop offset="1" stop-color="#377DF7"/>
</linearGradient>
<linearGradient id="paint12_linear_2607_11286" x1="172.355" y1="29.9223" x2="185.616" y2="29.1618" gradientUnits="userSpaceOnUse">
<stop stop-color="#A259FF"/>
<stop offset="1" stop-color="#377DF7"/>
</linearGradient>
</defs>
</svg>
