<svg width="238" height="25" viewBox="0 0 238 25" fill="none" xmlns="http://www.w3.org/2000/svg">
<g id="logo">
<g id="NFT Marketplace">
<path d="M45.48 18.948H45.876V5H48.78V20.4H43.104L41.3 6.452H40.904V20.4H38V5H43.676L45.48 18.948Z" fill="white"/>
<path d="M52.0647 5H61.9207V7.772H54.9687V11.292H61.7887V14.064H54.9687V20.4H52.0647V5Z" fill="white"/>
<path d="M64.7874 5H75.8754V7.772H71.7834V20.4H68.8794V7.772H64.7874V5Z" fill="white"/>
<path d="M91.0248 5H96.1288L97.0088 16.572V18.816H97.5368V16.572L98.4168 5H103.521V20.4H100.881V10.104L101.145 6.584H100.617L99.4728 20.4H95.1168L93.9288 6.584H93.4008L93.6648 10.104V20.4H91.0248V5Z" fill="white"/>
<path d="M112.79 18.816C112.496 19.5053 112.086 19.9967 111.558 20.29C111.03 20.5687 110.414 20.708 109.71 20.708C109.05 20.708 108.426 20.5833 107.84 20.334C107.268 20.0847 106.762 19.718 106.322 19.234C105.882 18.75 105.53 18.1633 105.266 17.474C105.016 16.7847 104.892 16 104.892 15.12V14.768C104.892 13.9027 105.016 13.1253 105.266 12.436C105.515 11.7467 105.852 11.16 106.278 10.676C106.703 10.192 107.194 9.82533 107.752 9.576C108.324 9.312 108.932 9.18 109.578 9.18C110.355 9.18 110.978 9.312 111.448 9.576C111.932 9.84 112.313 10.2507 112.592 10.808H112.988V9.488H115.76V17.1C115.76 17.54 115.958 17.76 116.354 17.76H116.772V20.4H114.88C114.381 20.4 113.97 20.2533 113.648 19.96C113.34 19.6667 113.186 19.2853 113.186 18.816H112.79ZM110.326 18.068C111.132 18.068 111.778 17.804 112.262 17.276C112.746 16.7333 112.988 16 112.988 15.076V14.812C112.988 13.888 112.746 13.162 112.262 12.634C111.778 12.0913 111.132 11.82 110.326 11.82C109.519 11.82 108.874 12.0913 108.39 12.634C107.906 13.162 107.664 13.888 107.664 14.812V15.076C107.664 16 107.906 16.7333 108.39 17.276C108.874 17.804 109.519 18.068 110.326 18.068Z" fill="white"/>
<path d="M118.67 9.488H123.29V11.072H123.686C123.892 10.4707 124.236 10.0087 124.72 9.686C125.219 9.34867 125.813 9.18 126.502 9.18C127.588 9.18 128.46 9.52467 129.12 10.214C129.78 10.8887 130.11 11.9227 130.11 13.316V13.8L127.25 14.064V13.756C127.25 13.1547 127.096 12.678 126.788 12.326C126.48 11.9593 126.018 11.776 125.402 11.776C124.786 11.776 124.302 11.9887 123.95 12.414C123.598 12.8393 123.422 13.448 123.422 14.24V17.76H125.93V20.4H118.406V17.76H120.65V12.128H118.67V9.488Z" fill="white"/>
<path d="M136.321 13.492H136.849L139.753 9.488H142.789V9.62L139.269 14.614V15.01L143.141 20.268V20.4H139.973L136.849 16.132H136.321V20.4H133.549V5H136.321V13.492Z" fill="white"/>
<path d="M148.582 15.846C148.596 16.1687 148.67 16.4693 148.802 16.748C148.948 17.012 149.139 17.2467 149.374 17.452C149.623 17.6427 149.902 17.7967 150.21 17.914C150.532 18.0167 150.87 18.068 151.222 18.068C151.911 18.068 152.439 17.9507 152.806 17.716C153.172 17.4667 153.436 17.1733 153.598 16.836L155.974 18.156C155.842 18.4347 155.658 18.728 155.424 19.036C155.189 19.3293 154.881 19.6007 154.5 19.85C154.133 20.0993 153.678 20.3047 153.136 20.466C152.608 20.6273 151.984 20.708 151.266 20.708C150.444 20.708 149.696 20.576 149.022 20.312C148.347 20.048 147.76 19.6667 147.262 19.168C146.778 18.6693 146.396 18.0607 146.118 17.342C145.854 16.6233 145.722 15.8093 145.722 14.9V14.768C145.722 13.932 145.861 13.1693 146.14 12.48C146.433 11.7907 146.829 11.204 147.328 10.72C147.826 10.236 148.406 9.862 149.066 9.598C149.74 9.31933 150.459 9.18 151.222 9.18C152.16 9.18 152.967 9.34867 153.642 9.686C154.316 10.0087 154.874 10.4267 155.314 10.94C155.754 11.4387 156.076 11.996 156.282 12.612C156.487 13.2133 156.59 13.8 156.59 14.372V15.846H148.582ZM151.2 11.688C150.496 11.688 149.924 11.8713 149.484 12.238C149.044 12.59 148.758 13.0007 148.626 13.47H153.774C153.686 12.9567 153.407 12.5313 152.938 12.194C152.483 11.8567 151.904 11.688 151.2 11.688Z" fill="white"/>
<path d="M159.302 9.488H162.536V5H165.308V9.488H169.246V12.128H165.308V17.1C165.308 17.54 165.506 17.76 165.902 17.76H168.85V20.4H164.23C163.732 20.4 163.321 20.2387 162.998 19.916C162.69 19.5933 162.536 19.1827 162.536 18.684V12.128H159.302V9.488Z" fill="white"/>
<path d="M175.281 24.8H172.509V9.488H175.281V11.072H175.677C175.97 10.4707 176.396 10.0087 176.953 9.686C177.51 9.34867 178.222 9.18 179.087 9.18C179.732 9.18 180.341 9.30467 180.913 9.554C181.5 9.80333 182.006 10.17 182.431 10.654C182.871 11.1233 183.216 11.7027 183.465 12.392C183.729 13.0813 183.861 13.866 183.861 14.746V15.142C183.861 16.0367 183.736 16.8287 183.487 17.518C183.238 18.2073 182.9 18.794 182.475 19.278C182.05 19.7473 181.544 20.1067 180.957 20.356C180.385 20.5907 179.762 20.708 179.087 20.708C178.588 20.708 178.156 20.6567 177.789 20.554C177.422 20.4513 177.1 20.312 176.821 20.136C176.557 19.96 176.33 19.762 176.139 19.542C175.963 19.3073 175.809 19.0653 175.677 18.816H175.281V24.8ZM178.185 18.068C179.05 18.068 179.747 17.804 180.275 17.276C180.818 16.7333 181.089 16 181.089 15.076V14.812C181.089 13.888 180.818 13.162 180.275 12.634C179.747 12.0913 179.05 11.82 178.185 11.82C177.32 11.82 176.616 12.0987 176.073 12.656C175.545 13.1987 175.281 13.9173 175.281 14.812V15.076C175.281 15.9707 175.545 16.6967 176.073 17.254C176.616 17.7967 177.32 18.068 178.185 18.068Z" fill="white"/>
<path d="M186.486 17.76H190.314V7.64H186.618V5H193.086V17.76H196.65V20.4H186.486V17.76Z" fill="white"/>
<path d="M207.084 18.816C206.791 19.5053 206.38 19.9967 205.852 20.29C205.324 20.5687 204.708 20.708 204.004 20.708C203.344 20.708 202.721 20.5833 202.134 20.334C201.562 20.0847 201.056 19.718 200.616 19.234C200.176 18.75 199.824 18.1633 199.56 17.474C199.311 16.7847 199.186 16 199.186 15.12V14.768C199.186 13.9027 199.311 13.1253 199.56 12.436C199.81 11.7467 200.147 11.16 200.572 10.676C200.998 10.192 201.489 9.82533 202.046 9.576C202.618 9.312 203.227 9.18 203.872 9.18C204.65 9.18 205.273 9.312 205.742 9.576C206.226 9.84 206.608 10.2507 206.886 10.808H207.282V9.488H210.054V17.1C210.054 17.54 210.252 17.76 210.648 17.76H211.066V20.4H209.174C208.676 20.4 208.265 20.2533 207.942 19.96C207.634 19.6667 207.48 19.2853 207.48 18.816H207.084ZM204.62 18.068C205.427 18.068 206.072 17.804 206.556 17.276C207.04 16.7333 207.282 16 207.282 15.076V14.812C207.282 13.888 207.04 13.162 206.556 12.634C206.072 12.0913 205.427 11.82 204.62 11.82C203.814 11.82 203.168 12.0913 202.684 12.634C202.2 13.162 201.958 13.888 201.958 14.812V15.076C201.958 16 202.2 16.7333 202.684 17.276C203.168 17.804 203.814 18.068 204.62 18.068Z" fill="white"/>
<path d="M224.141 16.396C223.892 17.6867 223.298 18.728 222.359 19.52C221.435 20.312 220.196 20.708 218.641 20.708C217.834 20.708 217.079 20.5833 216.375 20.334C215.686 20.0847 215.084 19.7253 214.571 19.256C214.058 18.7867 213.654 18.2073 213.361 17.518C213.068 16.8287 212.921 16.044 212.921 15.164V14.9C212.921 14.02 213.068 13.228 213.361 12.524C213.654 11.82 214.058 11.2187 214.571 10.72C215.099 10.2213 215.708 9.84 216.397 9.576C217.101 9.312 217.849 9.18 218.641 9.18C220.166 9.18 221.398 9.576 222.337 10.368C223.29 11.16 223.892 12.2013 224.141 13.492L221.413 14.196C221.325 13.5507 221.046 12.9933 220.577 12.524C220.108 12.0547 219.448 11.82 218.597 11.82C218.201 11.82 217.827 11.8933 217.475 12.04C217.123 12.1867 216.815 12.3993 216.551 12.678C216.287 12.942 216.074 13.272 215.913 13.668C215.766 14.0493 215.693 14.482 215.693 14.966V15.098C215.693 15.582 215.766 16.0147 215.913 16.396C216.074 16.7627 216.287 17.0707 216.551 17.32C216.815 17.5693 217.123 17.76 217.475 17.892C217.827 18.0093 218.201 18.068 218.597 18.068C219.448 18.068 220.093 17.8553 220.533 17.43C220.988 17.0047 221.281 16.4327 221.413 15.714L224.141 16.396Z" fill="white"/>
<path d="M229.406 15.846C229.421 16.1687 229.494 16.4693 229.626 16.748C229.773 17.012 229.963 17.2467 230.198 17.452C230.447 17.6427 230.726 17.7967 231.034 17.914C231.357 18.0167 231.694 18.068 232.046 18.068C232.735 18.068 233.263 17.9507 233.63 17.716C233.997 17.4667 234.261 17.1733 234.422 16.836L236.798 18.156C236.666 18.4347 236.483 18.728 236.248 19.036C236.013 19.3293 235.705 19.6007 235.324 19.85C234.957 20.0993 234.503 20.3047 233.96 20.466C233.432 20.6273 232.809 20.708 232.09 20.708C231.269 20.708 230.521 20.576 229.846 20.312C229.171 20.048 228.585 19.6667 228.086 19.168C227.602 18.6693 227.221 18.0607 226.942 17.342C226.678 16.6233 226.546 15.8093 226.546 14.9V14.768C226.546 13.932 226.685 13.1693 226.964 12.48C227.257 11.7907 227.653 11.204 228.152 10.72C228.651 10.236 229.23 9.862 229.89 9.598C230.565 9.31933 231.283 9.18 232.046 9.18C232.985 9.18 233.791 9.34867 234.466 9.686C235.141 10.0087 235.698 10.4267 236.138 10.94C236.578 11.4387 236.901 11.996 237.106 12.612C237.311 13.2133 237.414 13.8 237.414 14.372V15.846H229.406ZM232.024 11.688C231.32 11.688 230.748 11.8713 230.308 12.238C229.868 12.59 229.582 13.0007 229.45 13.47H234.598C234.51 12.9567 234.231 12.5313 233.762 12.194C233.307 11.8567 232.728 11.688 232.024 11.688Z" fill="white"/>
</g>
<g id="shop">
<g id="shop-body">
<path id="Vector (Stroke)" fill-rule="evenodd" clip-rule="evenodd" d="M3 9C3.55228 9 4 9.44772 4 10V22.55H22V10C22 9.44772 22.4477 9 23 9C23.5523 9 24 9.44772 24 10V22.55C24 23.0804 23.7893 23.5891 23.4142 23.9642C23.0391 24.3393 22.5304 24.55 22 24.55H4C3.46957 24.55 2.96086 24.3393 2.58579 23.9642C2.21071 23.5891 2 23.0804 2 22.55V10C2 9.44772 2.44772 9 3 9Z" fill="#A259FF"/>
</g>
<g id="shop-roof">
<path id="Vector (Stroke)_2" fill-rule="evenodd" clip-rule="evenodd" d="M0 1C0 0.447715 0.447715 0 1 0H25C25.5523 0 26 0.447715 26 1C26 1.55228 25.5523 2 25 2H1C0.447715 2 0 1.55228 0 1Z" fill="#A259FF"/>
<path id="Vector (Stroke)_3" fill-rule="evenodd" clip-rule="evenodd" d="M1 3C1.55228 3 2 3.44772 2 4V6C2 6.79565 2.31607 7.55871 2.87868 8.12132C3.44129 8.68393 4.20435 9 5 9C5.79565 9 6.55871 8.68393 7.12132 8.12132C7.68393 7.55871 8 6.79565 8 6V4C8 3.44772 8.44772 3 9 3C9.55229 3 10 3.44772 10 4V6C10 7.32608 9.47322 8.59785 8.53553 9.53553C7.59785 10.4732 6.32608 11 5 11C3.67392 11 2.40215 10.4732 1.46447 9.53553C0.526784 8.59785 0 7.32608 0 6V4C0 3.44772 0.447715 3 1 3Z" fill="#A259FF"/>
<path id="Vector (Stroke)_4" fill-rule="evenodd" clip-rule="evenodd" d="M9 3C9.55228 3 10 3.44772 10 4V6C10 6.79565 10.3161 7.55871 10.8787 8.12132C11.4413 8.68393 12.2044 9 13 9C13.7956 9 14.5587 8.68393 15.1213 8.12132C15.6839 7.55871 16 6.79565 16 6V4C16 3.44772 16.4477 3 17 3C17.5523 3 18 3.44772 18 4V6C18 7.32608 17.4732 8.59785 16.5355 9.53553C15.5979 10.4732 14.3261 11 13 11C11.6739 11 10.4021 10.4732 9.46447 9.53553C8.52678 8.59785 8 7.32608 8 6V4C8 3.44772 8.44772 3 9 3Z" fill="#A259FF"/>
<path id="Vector (Stroke)_5" fill-rule="evenodd" clip-rule="evenodd" d="M17 3C17.5523 3 18 3.44772 18 4V6C18 6.79565 18.3161 7.55871 18.8787 8.12132C19.4413 8.68393 20.2044 9 21 9C21.7956 9 22.5587 8.68393 23.1213 8.12132C23.6839 7.55871 24 6.79565 24 6V4C24 3.44772 24.4477 3 25 3C25.5523 3 26 3.44772 26 4V6C26 7.32608 25.4732 8.59785 24.5355 9.53553C23.5979 10.4732 22.3261 11 21 11C19.6739 11 18.4021 10.4732 17.4645 9.53553C16.5268 8.59785 16 7.32608 16 6V4C16 3.44772 16.4477 3 17 3Z" fill="#A259FF"/>
</g>
</g>
</g>
</svg>
